# xmcd
#
# Track frame offsets: 
#        150
#        25052
#        49582
#        77062
#        99210
#        120465
#        144997
#        177292
#
# Disc length: 2583 seconds
#
# Revision: 1
# Processed by: cddbd v1.5.2PL0 Copyright (c) Steve Scherf et al.
# Submitted via: ExactAudioCopyFreeDBPlugin 1.0
#
DISCID=560a1508
DTITLE=Roy Ayers - Africa, Center Of The World
DYEAR=1981
DGENRE=Funk
TTITLE0=Africa, Center Of The World
TTITLE1=Into The River Niger
TTITLE2=I'll Just Keep Trying
TTITLE3=Destination Motherland
TTITLE4=The Third Eye
TTITLE5=Intro Land Of Fruit and Honey
TTITLE6=Intro "Mo Nise Si E" ("I Love You")
TTITLE7=There's A Master Plan
EXTD=
EXTT0=
EXTT1=
EXTT2=
EXTT3=
EXTT4=
EXTT5=
EXTT6=
EXTT7=
PLAYORDER=
